HIERARCHY
ROOT Hips
{
  OFFSET 0.0273292 -0.436096 0.279869
  CHANNELS 6 Xposition Yposition Zposition Zrotation Xrotation Yrotation
  JOINT LHipJoint
  {
    OFFSET 0 0 0
    CHANNELS 6 Xposition Yposition Zposition Zrotation Xrotation Yrotation
    JOINT LeftUpLeg
    {
      OFFSET 1.36306 -1.79463 0
      CHANNELS 6 Xposition Yposition Zposition Zrotation Xrotation Yrotation
      JOINT LeftLeg
      {
        OFFSET 2.44807 -6.72613 0.000295034
        CHANNELS 6 Xposition Yposition Zposition Zrotation Xrotation Yrotation
        JOINT LeftFoot
        {
          OFFSET 2.5622 -7.03959 3.59965e-05
          CHANNELS 6 Xposition Yposition Zposition Zrotation Xrotation Yrotation
          JOINT LeftToeBase
          {
            OFFSET 0.15764 -0.43311 2.32255
            CHANNELS 6 Xposition Yposition Zposition Zrotation Xrotation Yrotation
            End Site
            {
              OFFSET 0 0 0
            }
          }
        }
      }
    }
  }
  JOINT RHipJoint
  {
    OFFSET 0 0 0
    CHANNELS 6 Xposition Yposition Zposition Zrotation Xrotation Yrotation
    JOINT RightUpLeg
    {
      OFFSET -1.30552 -1.79463 0
      CHANNELS 6 Xposition Yposition Zposition Zrotation Xrotation Yrotation
      JOINT RightLeg
      {
        OFFSET -2.54234 -6.98562 -0.000396375
        CHANNELS 6 Xposition Yposition Zposition Zrotation Xrotation Yrotation
        JOINT RightFoot
        {
          OFFSET -2.56826 -7.05623 -4.47982e-05
          CHANNELS 6 Xposition Yposition Zposition Zrotation Xrotation Yrotation
          JOINT RightToeBase
          {
            OFFSET -0.16473 -0.45259 2.36315
            CHANNELS 6 Xposition Yposition Zposition Zrotation Xrotation Yrotation
            End Site
            {
              OFFSET 0 0 0
            }
          }
        }
      }
    }
  }
  JOINT LowerBack
  {
    OFFSET 0 0 0
    CHANNELS 6 Xposition Yposition Zposition Zrotation Xrotation Yrotation
    JOINT Spine
    {
      OFFSET 0.0282699 2.03559 0
      CHANNELS 6 Xposition Yposition Zposition Zrotation Xrotation Yrotation
      JOINT Spine1
      {
        OFFSET 0.05672 2.04885 -0.04275
        CHANNELS 6 Xposition Yposition Zposition Zrotation Xrotation Yrotation
        JOINT Neck
        {
          OFFSET 0 0 0
          CHANNELS 6 Xposition Yposition Zposition Zrotation Xrotation Yrotation
          JOINT Neck1
          {
            OFFSET -0.05417 1.74624 0.17202
            CHANNELS 6 Xposition Yposition Zposition Zrotation Xrotation Yrotation
            JOINT Head
            {
              OFFSET 0.10407 1.76136 -0.12397
              CHANNELS 6 Xposition Yposition Zposition Zrotation Xrotation Yrotation
              End Site
              {
                OFFSET 0 0 0
              }
            }
          }
        }
        JOINT LeftShoulder
        {
          OFFSET 0 0 0
          CHANNELS 6 Xposition Yposition Zposition Zrotation Xrotation Yrotation
          JOINT LeftArm
          {
            OFFSET 3.36241 1.20089 -0.311211
            CHANNELS 6 Xposition Yposition Zposition Zrotation Xrotation Yrotation
            JOINT LeftForeArm
            {
              OFFSET 4.983 0.000197398 0.000166057
              CHANNELS 6 Xposition Yposition Zposition Zrotation Xrotation Yrotation
              JOINT LeftHand
              {
                OFFSET 3.48356 0 1.87849e-05
                CHANNELS 6 Xposition Yposition Zposition Zrotation Xrotation Yrotation
                JOINT LeftFingerBase
                {
                  OFFSET 0 0 0
                  CHANNELS 6 Xposition Yposition Zposition Zrotation Xrotation Yrotation
                  JOINT LeftHandIndex1
                  {
                    OFFSET 0.71526 0 0
                    CHANNELS 6 Xposition Yposition Zposition Zrotation Xrotation Yrotation
                    End Site
                    {
                      OFFSET 0 0 0
                    }
                  }
                }
                JOINT LThumb
                {
                  OFFSET 0 0 0
                  CHANNELS 6 Xposition Yposition Zposition Zrotation Xrotation Yrotation
                  End Site
                  {
                    OFFSET 0 0 0
                  }
                }
              }
            }
          }
        }
        JOINT RightShoulder
        {
          OFFSET 0 0 0
          CHANNELS 6 Xposition Yposition Zposition Zrotation Xrotation Yrotation
          JOINT RightArm
          {
            OFFSET -3.1366 1.37405 -0.404651
            CHANNELS 6 Xposition Yposition Zposition Zrotation Xrotation Yrotation
            JOINT RightForeArm
            {
              OFFSET -5.2419 -5.8808e-05 -0.000165864
              CHANNELS 6 Xposition Yposition Zposition Zrotation Xrotation Yrotation
              JOINT RightHand
              {
                OFFSET -3.44417 0 -2.00002e-05
                CHANNELS 6 Xposition Yposition Zposition Zrotation Xrotation Yrotation
                JOINT RightFingerBase
                {
                  OFFSET 0 0 0
                  CHANNELS 6 Xposition Yposition Zposition Zrotation Xrotation Yrotation
                  JOINT RightHandIndex1
                  {
                    OFFSET -0.62253 0 0
                    CHANNELS 6 Xposition Yposition Zposition Zrotation Xrotation Yrotation
                    End Site
                    {
                      OFFSET 0 0 0
                    }
                  }
                }
                JOINT RThumb
                {
                  OFFSET 0 0 0
                  CHANNELS 6 Xposition Yposition Zposition Zrotation Xrotation Yrotation
                  End Site
                  {
                    OFFSET 0 0 0
                  }
                }
              }
            }
          }
        }
      }
    }
  }
}
MOTION
Frames:	5
Frame Time:	0.00833333
-0.0741616 2.09601 -0.0580401 0.788616 -2.32954 2.03168 0 0 0 1.61513e-16 7.95139e-16 -7.95139e-16 1.36306 -1.79463 6.37822e-08 -12.7125 -3.37912 9.78675 2.44809 -6.72614 -2.88661e-05 -0.451054 9.1768 -1.56182 2.5622 -7.03959 -1.87459e-05 -6.62092 -4.71251 -1.7417 0.15764 -0.43311 2.32255 5.46658e-16 0 -1.59028e-15 0 0 0 1.61513e-16 7.95139e-16 -7.95139e-16 -1.30552 -1.79463 -9.59887e-09 17.8604 -12.6078 -8.3013 -2.54244 -6.9856 0.000503903 2.47745 25.8082 -8.45448 -2.56826 -7.05622 4.51957e-05 -0.858882 -14.6998 5.11599 -0.16473 -0.45259 2.36315 -4.32357e-15 -3.97569e-16 -0 0 0 0 1.61513e-16 7.95139e-16 -7.95139e-16 0.02827 2.03559 4.47485e-07 0.674626 3.33886 0.555944 0.05672 2.04885 -0.04275 6.27414e-16 1.98785e-16 3.97569e-16 0 0 0 4.22417e-16 1.98785e-16 7.95139e-16 -0.05417 1.74624 0.17202 0.0765031 1.54598 -0.2781 0.10407 1.76136 -0.12397 -1.61513e-16 -3.97569e-16 -7.95139e-16 0 0 0 4.22417e-16 1.98785e-16 7.95139e-16 3.36241 1.20089 -0.31121 -81.8917 5.67457 -0.902497 4.983 0.000188411 0.000168558 1.00086 0.293338 -10.1401 3.48356 4.97784e-06 -1.0964e-05 0.000100551 1.59028e-15 0.000188127 0 0 0 -2.38542e-15 0 -1.59028e-15 0.71526 0 0 -8.94531e-16 -3.97569e-16 1.59028e-15 0 0 0 -2.38542e-15 0 -1.59028e-15 0 0 0 4.22417e-16 1.98785e-16 7.95139e-16 -3.1366 1.37405 -0.40465 82.6587 23.9958 0.599445 -5.24191 0.000244453 0.00010752 -1.00038 0.285676 9.80351 -3.44417 6.42399e-06 -1.20969e-05 -7.82347e-05 9.54166e-15 -0.000188603 0 0 0 0 3.18055e-15 -0 -0.62253 0 0 0 0 -0 0 0 0 0 3.18055e-15 -0 
-0.291914 2.12362 -0.0805565 1.09427 -1.62193 2.56901 0 0 0 5.46658e-16 -1.98785e-16 -0 1.36306 -1.79463 6.37822e-08 -12.4267 -5.18143 9.37921 2.44809 -6.72614 -2.88661e-05 -0.66711 10.283 -0.488007 2.5622 -7.03959 -1.87459e-05 -6.33622 -5.17463 -1.92949 0.15764 -0.43311 2.32255 3.47873e-15 -7.95139e-16 1.59028e-15 0 0 0 5.46658e-16 -1.98785e-16 -0 -1.30552 -1.79463 -9.59887e-09 17.7885 -14.298 -7.53677 -2.54244 -6.9856 0.000503903 2.77564 26.8667 -8.82305 -2.56826 -7.05622 4.51957e-05 -0.917108 -14.9517 5.20947 -0.16473 -0.45259 2.36315 -3.97569e-15 -3.97569e-16 -1.59028e-15 0 0 0 5.46658e-16 -1.98785e-16 -0 0.02827 2.03559 4.47485e-07 0.225214 3.33907 0.544609 0.05672 2.04885 -0.04275 -6.21202e-17 3.97569e-16 -7.95139e-16 0 0 0 1.61513e-16 1.98785e-16 -3.97569e-16 -0.05417 1.74624 0.17202 0.25454 0.963919 -0.011254 0.10407 1.76136 -0.12397 2.48481e-16 -7.95139e-16 3.97569e-16 0 0 0 1.61513e-16 1.98785e-16 -3.97569e-16 3.36241 1.20089 -0.31121 -77.3531 6.77356 -0.674852 4.983 0.000188411 0.000168558 3.13393 -1.9249 -16.276 3.48356 4.97784e-06 -1.0964e-05 0.099095 -0.503573 0.194427 0 0 0 4.47266e-16 0 1.59028e-15 0.71526 0 0 3.47873e-16 9.93923e-16 -0 0 0 0 4.47266e-16 0 1.59028e-15 0 0 0 1.61513e-16 1.98785e-16 -3.97569e-16 -3.1366 1.37405 -0.40465 77.234 24.7268 1.74798 -5.24191 0.000244453 0.00010752 -1.36826 1.41506 14.3447 -3.44417 6.42399e-06 -1.20969e-05 2.9429 -0.691804 1.21555 0 0 0 1.59028e-15 6.36111e-15 1.59028e-15 -0.62253 0 4.44089e-16 1.59028e-15 3.18055e-15 4.77083e-15 0 0 0 1.59028e-15 6.36111e-15 1.59028e-15 
-0.770971 2.18436 -0.130093 1.75101 0.267946 3.75158 0 0 0 -7.76503e-17 -4.96962e-17 -1.59028e-15 1.36306 -1.79463 6.37822e-08 -11.7321 -9.9267 8.37069 2.44809 -6.72614 -2.88661e-05 -1.3914 13.3228 2.24814 2.5622 -7.03959 -1.87459e-05 -5.69394 -6.31488 -2.39683 0.15764 -0.43311 2.32255 -1.59028e-15 7.95139e-16 -3.18055e-15 0 0 0 -7.76503e-17 -4.96962e-17 -1.59028e-15 -1.30552 -1.79463 -9.59887e-09 17.6557 -18.7451 -5.68467 -2.54244 -6.9856 0.000503903 3.6051 29.8169 -9.83117 -2.56826 -7.05622 4.51957e-05 -1.02966 -15.6422 5.49476 -0.16473 -0.45259 2.36315 2.43511e-15 0 -7.95139e-16 0 0 0 -7.76503e-17 -4.96962e-17 -1.59028e-15 0.02827 2.03559 4.47485e-07 -0.847524 3.34052 0.492861 0.05672 2.04885 -0.04275 -1.98785e-16 -3.97569e-16 -7.95139e-16 0 0 0 -2.98177e-16 -3.97569e-16 -1.59028e-15 -0.05417 1.74624 0.17202 0.665871 -0.33769 0.63622 0.10407 1.76136 -0.12397 -4.96962e-16 -1.19271e-15 -1.59028e-15 0 0 0 -2.98177e-16 -3.97569e-16 -1.59028e-15 3.36241 1.20089 -0.31121 -67.4739 9.19115 0.295533 4.983 0.000188411 0.000168558 6.05437 -6.39116 -30.0575 3.48356 4.97784e-06 -1.0964e-05 0.381465 -1.68018 0.868396 0 0 0 1.49089e-16 -7.95139e-16 -0 0.71526 0 1.11022e-16 3.97569e-15 -1.09332e-15 -0 0 0 0 1.49089e-16 -7.95139e-16 -0 0 0 0 -2.98177e-16 -3.97569e-16 -1.59028e-15 -3.1366 1.37405 -0.40465 65.1849 26.2998 4.32405 -5.24191 0.000244453 0.00010752 -2.83995 3.6557 25.1104 -3.44417 6.42399e-06 -1.20969e-05 9.52915 -2.33245 3.89313 0 0 0 1.59028e-15 0 -3.18055e-15 -0.62253 0 -4.44089e-16 -3.18055e-15 -9.54166e-15 -0 0 0 0 1.59028e-15 0 -3.18055e-15 
-1.25003 2.2451 -0.179629 2.38974 2.98875 4.94183 0 0 0 -1.49089e-16 0 -0 1.36306 -1.79463 6.37822e-08 -10.8941 -16.6191 7.06455 2.44809 -6.72614 -2.88661e-05 -2.82881 17.8459 5.9741 2.5622 -7.03959 -1.87459e-05 -5.01002 -7.76392 -3.00009 0.15764 -0.43311 2.32255 0 0 -4.77083e-15 0 0 0 -1.49089e-16 0 -0 -1.30552 -1.79463 -9.59887e-09 17.5967 -24.9986 -3.36629 -2.54244 -6.9856 0.000503903 4.93595 34.3104 -11.393 -2.56826 -7.05622 4.51957e-05 -1.09767 -16.6721 5.9812 -0.16473 -0.45259 2.36315 -1.06847e-15 3.97569e-16 -0 0 0 0 -1.49089e-16 0 -0 0.02827 2.03559 4.47485e-07 -2.13033 3.34444 0.374082 0.05672 2.04885 -0.04275 1.98785e-16 7.95139e-16 -0 0 0 0 1.98785e-16 0 -7.95139e-16 -0.05417 1.74624 0.17202 1.11228 -1.69145 1.43584 0.10407 1.76136 -0.12397 -2.98177e-16 7.95139e-16 -0 0 0 0 1.98785e-16 0 -7.95139e-16 3.36241 1.20089 -0.31121 -57.9144 11.5981 2.45485 4.983 0.000188411 0.000168558 6.36824 -9.71384 -44.5053 3.48356 4.97784e-06 -1.0964e-05 0.84023 -3.02734 2.16038 0 0 0 4.17448e-15 -3.57812e-15 6.36111e-15 0.71526 0 -5.55112e-16 -2.18663e-15 2.38542e-15 -6.36111e-15 0 0 0 4.17448e-15 -3.57812e-15 6.36111e-15 0 0 0 1.98785e-16 0 -7.95139e-16 -3.1366 1.37405 -0.40465 52.9755 27.8167 6.97288 -5.24191 0.000244453 0.00010752 -5.29622 5.23337 37.7925 -3.44417 6.42399e-06 -1.20969e-05 16.3044 -4.26446 6.58264 0 0 0 -1.76556e-31 6.36111e-15 1.59028e-15 -0.62253 0 -8.88178e-16 -3.53113e-31 6.36111e-15 3.18055e-15 0 0 0 -1.76556e-31 6.36111e-15 1.59028e-15 
-1.46778 2.27271 -0.202145 2.76468 6.19667 5.50534 0 0 0 -6.95746e-16 0 -0 1.36306 -1.79463 6.37822e-08 -10.0685 -24.2377 5.70179 2.44809 -6.72614 -2.88661e-05 -5.07825 23.3801 10.0729 2.5622 -7.03959 -1.87459e-05 -4.5796 -9.15338 -3.5931 0.15764 -0.43311 2.32255 1.98785e-15 0 -0 0 0 0 -6.95746e-16 0 -0 -1.30552 -1.79463 -9.59887e-09 17.4729 -32.0861 -1.20085 -2.54244 -6.9856 0.000503903 6.78614 39.9937 -13.4943 -2.56826 -7.05622 4.51957e-05 -1.01697 -17.9413 6.68026 -0.16473 -0.45259 2.36315 -1.16165e-15 0 -1.98785e-16 0 0 0 -6.95746e-16 0 -0 0.02827 2.03559 4.47485e-07 -3.2099 3.35203 0.161652 0.05672 2.04885 -0.04275 1.98785e-16 1.59028e-15 -7.95139e-16 0 0 0 1.98785e-16 3.18055e-15 -7.95139e-16 -0.05417 1.74624 0.17202 1.34681 -2.43024 2.15855 0.10407 1.76136 -0.12397 0 0 -0 0 0 0 1.98785e-16 3.18055e-15 -7.95139e-16 3.36241 1.20089 -0.31121 -54.2419 12.6345 6.23746 4.983 0.000188411 0.000168558 4.38088 -11.3431 -52.0423 3.48356 4.97784e-06 -1.0964e-05 1.45479 -4.03914 4.20928 0 0 0 2.43511e-15 3.08116e-15 -3.18055e-15 0.71526 0 0 2.38542e-15 8.94531e-16 6.36111e-15 0 0 0 2.43511e-15 3.08116e-15 -3.18055e-15 0 0 0 1.98785e-16 3.18055e-15 -7.95139e-16 -3.1366 1.37405 -0.40465 47.3722 28.4849 8.20242 -5.24191 0.000244453 0.00010752 -7.07341 5.23341 47.9168 -3.44417 6.42399e-06 -1.20969e-05 19.544 -5.8568 7.82106 0 0 0 0 0 -0 -0.62253 0 0 3.18055e-15 -6.36111e-15 4.77083e-15 0 0 0 0 0 -0 
